<svg xmlns="http://www.w3.org/2000/svg" width="429.808" height="171.004" viewBox="0 0 429.808 171.004">
  <g id="color" transform="translate(-870 -3115)">
    <g id="グループ_35" data-name="グループ 35" transform="translate(870 3115)">
      <rect id="長方形_16" data-name="長方形 16" width="137.759" height="165.311" fill="#fff"/>
      <path id="長方形_16_-_アウトライン" data-name="長方形 16 - アウトライン" d="M1,1V164.311H136.759V1H1M0,0H137.759V165.311H0Z" fill="#2c2c2c"/>
      <rect id="長方形_17" data-name="長方形 17" width="121.228" height="118.473" transform="translate(8.266 8.266)" fill="#de714a"/>
      <path id="長方形_17_-_アウトライン" data-name="長方形 17 - アウトライン" d="M.5.5V117.973H120.728V.5H.5M0,0H121.228V118.473H0Z" transform="translate(8.266 8.266)" fill="#2c2c2c"/>
      <text id="_DE714A" data-name="#DE714A" transform="translate(68.88 151.004)" fill="#2c2c2c" font-size="12" font-family="Noto Serif JP"><tspan x="-26.058" y="0">#DE714A</tspan></text>
    </g>
    <g id="グループ_36" data-name="グループ 36" transform="translate(1016.024 3115)">
      <rect id="長方形_16-2" data-name="長方形 16" width="137.759" height="165.311" transform="translate(0)" fill="#fff"/>
      <path id="長方形_16_-_アウトライン-2" data-name="長方形 16 - アウトライン" d="M1,1V164.311H136.759V1H1M0,0H137.759V165.311H0Z" transform="translate(0)" fill="#2c2c2c"/>
      <rect id="長方形_17-2" data-name="長方形 17" width="121.228" height="118.473" transform="translate(8.266 8.266)" fill="#aabcbb"/>
      <path id="長方形_17_-_アウトライン-2" data-name="長方形 17 - アウトライン" d="M1,1V117.473H120.228V1H1M0,0H121.228V118.473H0Z" transform="translate(8.266 8.266)" fill="#2c2c2c"/>
      <text id="_AABCBB_" data-name="#AABCBB
" transform="translate(68.88 151.004)" fill="#2c2c2c" font-size="12" font-family="Noto Serif JP"><tspan x="-27.894" y="0">#AABCBB</tspan><tspan x="0" y="17"></tspan></text>
    </g>
    <g id="グループ_37" data-name="グループ 37" transform="translate(1162.049 3115)">
      <rect id="長方形_16-3" data-name="長方形 16" width="137.759" height="165.311" fill="#fff"/>
      <path id="長方形_16_-_アウトライン-3" data-name="長方形 16 - アウトライン" d="M1,1V164.311H136.759V1H1M0,0H137.759V165.311H0Z" fill="#2c2c2c"/>
      <rect id="長方形_17-3" data-name="長方形 17" width="121.228" height="118.473" transform="translate(8.266 8.266)" fill="#fff0aa"/>
      <path id="長方形_17_-_アウトライン-3" data-name="長方形 17 - アウトライン" d="M1,1V117.473H120.228V1H1M0,0H121.228V118.473H0Z" transform="translate(8.266 8.266)" fill="#2c2c2c"/>
      <text id="_FEF2AA" data-name="#FEF2AA" transform="translate(68.879 151.004)" fill="#2c2c2c" font-size="12" font-family="Noto Serif JP"><tspan x="-26.814" y="0">#FEF2AA</tspan></text>
    </g>
  </g>
</svg>
